# xmcd
#
# Track frame offsets:
#	150
#	20648
#	38242
#	55445
#	72335
#	87768
#	108980
#	123590
#	141172
#	160996
#	181842
#	200905
#
# Disc length: 2939 seconds
#
# Revision: 1
# Processed by: cddbd v1.4b42PL1 Copyright (c) Steve Scherf et al.
# Submitted via: audiograbber 1.80.04
#
DISCID=af0b790c
DTITLE=Markus Linder - Schlofand wöhler, ihr Kamöler
DYEAR=1900
DGENRE=
TTITLE0=Schlofand wöhler, ihr Kamöler
TTITLE1=Neabl im Tal
TTITLE2=An grada Michl
TTITLE3=An ghöriga Riebl
TTITLE4=Wenn, denn ghörig
TTITLE5=I bin hoaß
TTITLE6=Duri dadur
TTITLE7=Da klene Prinz
TTITLE8=Vollmo
TTITLE9=Frei beinand
TTITLE10=Vorarlberger Blues-Man
TTITLE11=Des klene Wörtle gsi
EXTD=
EXTT0=
EXTT1=
EXTT2=
EXTT3=
EXTT4=
EXTT5=
EXTT6=
EXTT7=
EXTT8=
EXTT9=
EXTT10=
EXTT11=
PLAYORDER=
